<svg xmlns="http://www.w3.org/2000/svg" width="31" height="31" viewBox="0 0 31 31">
  <defs>
    <style>
      .cls-1 {
        fill: #fff;
        stroke: #dd4b39;
        stroke-width: 1px;
      }

      .cls-2 {
        fill: #dd4b39;
        fill-rule: evenodd;
      }
    </style>
  </defs>
  <circle id="btn_copy_4" data-name="btn copy 4" class="cls-1" cx="15.5" cy="15.5" r="15.5"/>
  <path id="g" class="cls-2" d="M13.214,21C15.2,21,16.3,19.777,16.3,18.547a2.433,2.433,0,0,0-1.1-2.214,2.192,2.192,0,0,1-.827-1.06,1.134,1.134,0,0,1,.6-0.975,2.346,2.346,0,0,0,.886-1.779,2.064,2.064,0,0,0-1.012-1.968h1l0.7-.551H13.41a2.718,2.718,0,0,0-2.732,2.5,2.364,2.364,0,0,0,2.392,2.476l0.291-.01a1.478,1.478,0,0,0-.16.637,1.368,1.368,0,0,0,.428.941l-0.545.006C11.341,16.546,10,17.752,10,19,10,20.232,11.471,21,13.214,21Zm0.311-6.376a2.242,2.242,0,0,1-1.718-2.135c-0.14-1.153.4-2.035,1.211-2.009a2.2,2.2,0,0,1,1.718,2.1C14.876,13.738,14.333,14.651,13.525,14.625Zm-0.107,2.239A2.448,2.448,0,0,1,14.2,17a2.651,2.651,0,0,1,1.256,1.335,1.626,1.626,0,0,1,.039.351c0,1-.591,1.771-2.285,1.771a1.932,1.932,0,0,1-2.075-1.822A2.108,2.108,0,0,1,13.417,16.864Zm6.333-4.45V10H19v2.415H16.75v0.814H19V15.7h0.75V13.228H22V12.414h-2.25Z"/>
</svg>
