<svg xmlns="http://www.w3.org/2000/svg" width="63" height="60" viewBox="0 0 63 60">
  <defs>
    <style>
      .cls-1 {
        fill: #3ebbb7;
        fill-rule: evenodd;
      }
    </style>
  </defs>
  <path id="house" class="cls-1" d="M62.06,27.487L33.443,0.774a2.975,2.975,0,0,0-4,0L0.822,27.487a2.518,2.518,0,0,0,0,3.737,2.976,2.976,0,0,0,4,0L31.441,6.381,58.056,31.224a2.976,2.976,0,0,0,4,0A2.52,2.52,0,0,0,62.06,27.487ZM51.155,29.255A2.743,2.743,0,0,0,48.323,31.9V54.714H41.08V38.659a2.743,2.743,0,0,0-2.832-2.643H24.633A2.743,2.743,0,0,0,21.8,38.659V54.714H14.56V31.9a2.742,2.742,0,0,0-2.832-2.643A2.743,2.743,0,0,0,8.9,31.9V57.357A2.743,2.743,0,0,0,11.728,60h12.9a2.743,2.743,0,0,0,2.832-2.643V41.3h7.952V57.357A2.743,2.743,0,0,0,38.248,60H51.154a2.743,2.743,0,0,0,2.832-2.643V31.9A2.742,2.742,0,0,0,51.155,29.255Z"/>
</svg>
