<svg xmlns="http://www.w3.org/2000/svg" width="30" height="24" viewBox="0 0 30 24">
  <defs>
    <style>
      .cls-1 {
        fill: #fff;
        fill-rule: evenodd;
      }
    </style>
  </defs>
  <path id="logo" class="cls-1" d="M15,4.845L4.3,13.711a0.252,0.252,0,0,1-.009.056,0.256,0.256,0,0,0-.009.056V22.8A1.212,1.212,0,0,0,5.471,24h7.147V16.816h4.765V24h7.146a1.212,1.212,0,0,0,1.191-1.2V13.823a0.266,0.266,0,0,0-.019-0.112Zm14.8,6.846-4.076-3.4V0.656a0.583,0.583,0,0,0-.168-0.43A0.576,0.576,0,0,0,25.124.057H21.551a0.579,0.579,0,0,0-.428.168,0.585,0.585,0,0,0-.167.43V4.3L16.414,0.487a2.3,2.3,0,0,0-2.829,0L0.2,11.691a0.543,0.543,0,0,0-.2.4,0.608,0.608,0,0,0,.13.44l1.154,1.384a0.635,0.635,0,0,0,.391.206,0.688,0.688,0,0,0,.447-0.131L15,3.2,27.879,13.992a0.572,0.572,0,0,0,.391.131h0.056a0.635,0.635,0,0,0,.391-0.206l1.154-1.384a0.607,0.607,0,0,0,.13-0.44A0.544,0.544,0,0,0,29.8,11.691Z"/>
</svg>
