<svg xmlns="http://www.w3.org/2000/svg" width="86" height="75" viewBox="0 0 69 99">
  <defs>
    <style>
      .cls-1 {
        fill: #3ebbb7;
        fill-rule: evenodd;
      }
    </style>
  </defs>
  <path id="pin" class="cls-1" d="M34.5,50.891A16.15,16.15,0,1,0,18.46,34.742,16.109,16.109,0,0,0,34.5,50.891Zm0-26.1a9.953,9.953,0,1,1-9.883,9.953A9.929,9.929,0,0,1,34.5,24.79ZM32.257,97.474a5.467,5.467,0,0,0,1.493,1.21L33.775,98.7,34.741,99l0.968-.3,0.024-.012a5.468,5.468,0,0,0,1.494-1.21S65.83,66.148,68.7,39.006a34.5,34.5,0,1,0-68.408.057C3.241,66.2,32.257,97.474,32.257,97.474ZM34.5,6.2a28.373,28.373,0,0,1,28.09,32.151c-2.205,20.8-21.591,45.205-27.838,52.625C28.342,83.542,8.677,59.2,6.4,38.3a29.564,29.564,0,0,1-.246-3.558A28.473,28.473,0,0,1,34.5,6.2Z"/>
</svg>
