<svg xmlns="http://www.w3.org/2000/svg" width="31" height="31" viewBox="0 0 31 31">
  <defs>
    <style>
      .cls-1 {
        fill: #fff;
        stroke: #55acee;
        stroke-width: 1px;
      }

      .cls-2 {
        fill: #55acee;
        fill-rule: evenodd;
      }
    </style>
  </defs>
  <circle id="btn_copy_3" data-name="btn copy 3" class="cls-1" cx="15.5" cy="15.5" r="15.5"/>
  <path id="t" class="cls-2" d="M20.672,12.272c-0.054.015-.108,0.03-0.163,0.043-0.331.081-.362-0.026-0.122-0.261a2.152,2.152,0,0,0,.285-0.344c0.185-.278.024-0.4-0.29-0.269q-0.168.069-.342,0.126a1.468,1.468,0,0,1-1.072-.23A2.33,2.33,0,0,0,17.726,11a2.305,2.305,0,0,0-1.662.664,2.153,2.153,0,0,0-.687,1.607,2.323,2.323,0,0,0,.015.261c0.017,0.144-.234.248-0.573,0.2A6.776,6.776,0,0,1,11,11.862c-0.239-.236-0.562-0.216-0.652.1a2.206,2.206,0,0,0-.08.6,2.154,2.154,0,0,0,.284,1.083,2.331,2.331,0,0,0,.331.45c0.213,0.226.18,0.357-.116,0.276a3.887,3.887,0,0,1-.513-0.192v0.014a2.149,2.149,0,0,0,.534,1.445,2.33,2.33,0,0,0,.765.592c0.306,0.147.449,0.229,0.278,0.25a2.5,2.5,0,0,1-.312.019q-0.106,0-.223-0.009c-0.123-.01-0.145.237,0.041,0.514a2.4,2.4,0,0,0,1.324.949c0.329,0.09.395,0.255,0.1,0.425a4.712,4.712,0,0,1-2.408.631c-0.1,0-.194,0-0.284-0.006-0.157-.007-0.052.126,0.251,0.28A6.707,6.707,0,0,0,13.4,20a7.085,7.085,0,0,0,2.35-.383,6.036,6.036,0,0,0,1.877-1.026,6.947,6.947,0,0,0,1.342-1.48,6.5,6.5,0,0,0,.84-1.747,6.255,6.255,0,0,0,.276-1.824q0-.083,0-0.148a1.693,1.693,0,0,1,.471-0.528q0.169-.153.322-0.321C21.1,12.293,21,12.179,20.672,12.272Z"/>
</svg>
