<svg xmlns="http://www.w3.org/2000/svg" width="59" height="54" viewBox="0 0 59 54">
  <defs>
    <style>
      .cls-1 {
        fill: #3ebbb7;
        fill-rule: evenodd;
      }
    </style>
  </defs>
  <path id="upload" class="cls-1" d="M37.752,30.547a2.043,2.043,0,0,0,0-2.9l-5.826-5.8a3.447,3.447,0,0,0-4.855,0l-5.825,5.8a2.043,2.043,0,0,0,0,2.9,2.066,2.066,0,0,0,2.912,0l3.281-3.268V51.951a2.06,2.06,0,0,0,4.12,0V27.278l3.281,3.267A2.067,2.067,0,0,0,37.752,30.547ZM51.885,17.824A14.289,14.289,0,0,0,40.127,6.9,17.675,17.675,0,0,0,8.765,14.3,13.291,13.291,0,0,0,0,26.846c0,9.332,6.724,12.8,10.281,13.324a4.2,4.2,0,0,0,.607.045H21.476V40.178c0.027,0,.051.008,0.078,0.008a2.051,2.051,0,1,0,0-4.1,1.989,1.989,0,0,0-.288.029H10.884s-6.769-1-6.769-9.266a9.28,9.28,0,0,1,8.463-9.223c0-.015,0-0.028,0-0.042a13.541,13.541,0,0,1,25.254-6.732c0.044,0,.086-0.006.13-0.006A10.13,10.13,0,0,1,48.115,20.951c0,0.028,0,.056,0,0.084a7.535,7.535,0,0,1,0,14.993v0.085H38.35a1.986,1.986,0,0,0-.288-0.029,2.046,2.046,0,0,0-.107,4.09v0.04H48.115a4.121,4.121,0,0,0,1.461-.265A11.622,11.622,0,0,0,51.885,17.824Z"/>
</svg>
