<svg xmlns="http://www.w3.org/2000/svg" width="12" height="9" viewBox="0 0 12 9">
  <defs>
    <style>
      .cls-1 {
        fill: #fff;
        fill-rule: evenodd;
      }
    </style>
  </defs>
  <path id="t" class="cls-1" d="M11.672,1.272q-0.081.023-.163,0.043c-0.331.081-.362-0.026-0.122-0.261A2.151,2.151,0,0,0,11.673.709c0.185-.278.024-0.4-0.29-0.269q-0.168.069-.342,0.126A1.468,1.468,0,0,1,9.969.335,2.329,2.329,0,0,0,8.726,0,2.306,2.306,0,0,0,7.064.664a2.153,2.153,0,0,0-.687,1.607,2.323,2.323,0,0,0,.015.261c0.017,0.144-.234.248-0.573,0.2a6.659,6.659,0,0,1-2.087-.643A6.684,6.684,0,0,1,2,.861C1.763,0.625,1.44.646,1.35,0.964a2.2,2.2,0,0,0-.08.6,2.153,2.153,0,0,0,.284,1.083,2.324,2.324,0,0,0,.331.45C2.1,3.319,2.065,3.45,1.769,3.37a3.91,3.91,0,0,1-.513-0.192V3.192A2.149,2.149,0,0,0,1.79,4.637a2.325,2.325,0,0,0,.765.592C2.862,5.376,3,5.457,2.833,5.479a2.523,2.523,0,0,1-.312.019Q2.415,5.5,2.3,5.489C2.176,5.479,2.154,5.726,2.34,6a2.4,2.4,0,0,0,1.324.949c0.329,0.091.395,0.256,0.1,0.425a4.712,4.712,0,0,1-2.408.631c-0.1,0-.194,0-0.284-0.006-0.157-.007-0.052.126,0.251,0.279A6.708,6.708,0,0,0,4.4,9a7.088,7.088,0,0,0,2.35-.383A6.035,6.035,0,0,0,8.624,7.59,6.944,6.944,0,0,0,9.966,6.11a6.5,6.5,0,0,0,.84-1.747,6.254,6.254,0,0,0,.276-1.825c0-.055,0-0.1,0-0.148a1.694,1.694,0,0,1,.471-0.528q0.169-.153.322-0.321C12.1,1.293,12,1.179,11.672,1.272Z"/>
</svg>
