<svg xmlns="http://www.w3.org/2000/svg" width="12" height="11" viewBox="0 0 12 11">
  <defs>
    <style>
      .cls-1 {
        fill: #fff;
        fill-rule: evenodd;
      }
    </style>
  </defs>
  <path id="g" class="cls-1" d="M3.214,11C5.2,11,6.3,9.777,6.3,8.547A2.433,2.433,0,0,0,5.2,6.332a2.192,2.192,0,0,1-.827-1.06,1.134,1.134,0,0,1,.6-0.975,2.346,2.346,0,0,0,.886-1.779A2.064,2.064,0,0,0,4.852.55h1L6.551,0H3.411A2.718,2.718,0,0,0,.679,2.5,2.365,2.365,0,0,0,3.071,4.973l0.291-.01A1.477,1.477,0,0,0,3.2,5.6a1.368,1.368,0,0,0,.427.941l-0.545.006C1.341,6.546,0,7.752,0,9,0,10.231,1.471,11,3.214,11ZM3.525,4.625A2.242,2.242,0,0,1,1.807,2.49c-0.14-1.153.4-2.035,1.211-2.009a2.2,2.2,0,0,1,1.718,2.1C4.876,3.738,4.333,4.651,3.525,4.625ZM3.417,6.864A2.46,2.46,0,0,1,4.2,7,2.651,2.651,0,0,1,5.455,8.335a1.628,1.628,0,0,1,.039.351c0,1-.59,1.772-2.285,1.772A1.932,1.932,0,0,1,1.133,8.635,2.108,2.108,0,0,1,3.417,6.864Zm6.333-4.45V0H9V2.414H6.75V3.228H9V5.7h0.75V3.228H12V2.414H9.751Z"/>
</svg>
