<svg xmlns="http://www.w3.org/2000/svg" width="9" height="9" viewBox="0 0 9 9">
  <defs>
    <style>
      .cls-1 {
        fill: #fff;
        fill-rule: evenodd;
      }
    </style>
  </defs>
  <path id="l" class="cls-1" d="M2.038,0.975A0.965,0.965,0,0,1,1,1.951,0.954,0.954,0,0,1,0,.975,0.961,0.961,0,0,1,1.025,0,0.958,0.958,0,0,1,2.038.975ZM0.051,9V2.722H1.975V9H0.051ZM3.126,4.725c0-.783-0.025-1.438-0.05-2H4.746L4.835,3.595H4.873A2.215,2.215,0,0,1,6.785,2.58C8.05,2.58,9,3.441,9,5.289V9H7.076V5.521C7.076,4.712,6.8,4.16,6.1,4.16a1.058,1.058,0,0,0-.987.732,1.42,1.42,0,0,0-.063.488V9H3.126V4.725Z"/>
</svg>
